<svg xmlns="http://www.w3.org/2000/svg" xmlns:xlink="http://www.w3.org/1999/xlink" width="500" zoomAndPan="magnify" viewBox="0 0 375 374.999991" height="500" preserveAspectRatio="xMidYMid meet" version="1.0"><defs><g/><clipPath id="9e6698d4ca"><path d="M 57.140625 46.414062 L 313.144531 46.414062 L 313.144531 302.421875 L 57.140625 302.421875 Z M 57.140625 46.414062 " clip-rule="nonzero"/></clipPath><clipPath id="40464c4d39"><path d="M 185.144531 46.414062 C 114.449219 46.414062 57.140625 103.722656 57.140625 174.417969 C 57.140625 245.113281 114.449219 302.421875 185.144531 302.421875 C 255.835938 302.421875 313.144531 245.113281 313.144531 174.417969 C 313.144531 103.722656 255.835938 46.414062 185.144531 46.414062 Z M 185.144531 46.414062 " clip-rule="nonzero"/></clipPath><clipPath id="5b843b7002"><path d="M 128.894531 118.167969 L 241.394531 118.167969 L 241.394531 230.667969 L 128.894531 230.667969 Z M 128.894531 118.167969 " clip-rule="nonzero"/></clipPath><clipPath id="efbb3dbb67"><path d="M 185.144531 118.167969 C 154.078125 118.167969 128.894531 143.351562 128.894531 174.417969 C 128.894531 205.484375 154.078125 230.667969 185.144531 230.667969 C 216.210938 230.667969 241.394531 205.484375 241.394531 174.417969 C 241.394531 143.351562 216.210938 118.167969 185.144531 118.167969 Z M 185.144531 118.167969 " clip-rule="nonzero"/></clipPath><clipPath id="13173c88f0"><path d="M 49.707031 38.984375 L 318 38.984375 L 318 307.484375 L 49.707031 307.484375 Z M 49.707031 38.984375 " clip-rule="nonzero"/></clipPath></defs><rect x="-37.5" width="450" fill="#ffffff" y="-37.499999" height="449.999989" fill-opacity="1"/><rect x="-37.5" width="450" fill="#0c3872" y="-37.499999" height="449.999989" fill-opacity="1"/><g clip-path="url(#9e6698d4ca)"><g clip-path="url(#40464c4d39)"><path fill="#d45a5a" d="M 57.140625 46.414062 L 313.144531 46.414062 L 313.144531 302.421875 L 57.140625 302.421875 Z M 57.140625 46.414062 " fill-opacity="1" fill-rule="nonzero"/></g></g><g clip-path="url(#5b843b7002)"><g clip-path="url(#efbb3dbb67)"><path fill="#d45a5a" d="M 128.894531 118.167969 L 241.394531 118.167969 L 241.394531 230.667969 L 128.894531 230.667969 Z M 128.894531 118.167969 " fill-opacity="1" fill-rule="nonzero"/></g></g><g clip-path="url(#13173c88f0)"><path fill="#0c3872" d="M 183.78125 307.132812 C 109.710938 307.132812 49.707031 246.714844 49.707031 173.058594 C 49.707031 99.398438 109.710938 38.984375 183.78125 38.984375 C 257.855469 38.984375 317.855469 98.984375 317.855469 173.058594 C 317.855469 247.128906 257.441406 307.132812 183.78125 307.132812 Z M 183.78125 47.257812 C 114.261719 47.257812 57.984375 103.539062 57.984375 173.058594 C 57.984375 242.578125 114.261719 298.855469 183.78125 298.855469 C 253.300781 298.855469 309.582031 242.578125 309.582031 173.058594 C 309.578125 103.539062 252.886719 47.257812 183.78125 47.257812 Z M 183.78125 47.257812 " fill-opacity="1" fill-rule="nonzero"/></g><g fill="#ffc1b2" fill-opacity="0.302"><g transform="translate(126.268374, 218.982435)"><g><path d="M 60.390625 -83.03125 C 60.828125 -83.414062 61.328125 -83.5 61.890625 -83.28125 C 62.378906 -83.0625 62.625 -82.675781 62.625 -82.125 L 62.625 -63.546875 C 62.625 -62.992188 62.378906 -62.601562 61.890625 -62.375 C 61.390625 -62.15625 60.945312 -62.238281 60.5625 -62.625 C 59.0625 -64.007812 57.316406 -64.703125 55.328125 -64.703125 L 30.9375 -64.703125 C 30.382812 -64.703125 29.914062 -64.507812 29.53125 -64.125 C 29.09375 -63.738281 28.875 -63.238281 28.875 -62.625 L 28.875 -50.1875 C 28.875 -49.582031 29.09375 -49.082031 29.53125 -48.6875 C 29.914062 -48.300781 30.382812 -48.109375 30.9375 -48.109375 L 38.234375 -48.109375 C 40.234375 -48.109375 41.976562 -48.800781 43.46875 -50.1875 C 43.90625 -50.457031 44.375 -50.484375 44.875 -50.265625 C 45.320312 -49.992188 45.546875 -49.609375 45.546875 -49.109375 L 45.546875 -30.6875 C 45.546875 -30.195312 45.320312 -29.835938 44.875 -29.609375 C 44.375 -29.335938 43.90625 -29.335938 43.46875 -29.609375 C 41.976562 -30.992188 40.234375 -31.6875 38.234375 -31.6875 L 30.9375 -31.6875 C 30.382812 -31.6875 29.914062 -31.492188 29.53125 -31.109375 C 29.09375 -30.722656 28.875 -30.222656 28.875 -29.609375 L 28.875 -17.171875 C 28.875 -16.566406 29.09375 -16.066406 29.53125 -15.671875 C 29.914062 -15.285156 30.382812 -15.09375 30.9375 -15.09375 L 55.328125 -15.09375 C 57.316406 -15.09375 59.0625 -15.785156 60.5625 -17.171875 C 60.945312 -17.554688 61.390625 -17.640625 61.890625 -17.421875 C 62.378906 -17.203125 62.625 -16.816406 62.625 -16.265625 L 62.625 2.234375 C 62.625 2.847656 62.378906 3.265625 61.890625 3.484375 C 61.328125 3.703125 60.828125 3.617188 60.390625 3.234375 C 59.003906 1.960938 57.375 1.328125 55.5 1.328125 L 11.28125 1.328125 C 10.726562 1.328125 10.34375 1.078125 10.125 0.578125 C 9.894531 0.140625 9.921875 -0.300781 10.203125 -0.75 L 10.453125 -1 C 11.117188 -1.71875 11.613281 -2.546875 11.9375 -3.484375 C 12.269531 -4.367188 12.4375 -5.28125 12.4375 -6.21875 L 12.4375 -73.578125 C 12.4375 -75.628906 11.773438 -77.375 10.453125 -78.8125 L 10.203125 -79.046875 C 9.921875 -79.492188 9.894531 -79.96875 10.125 -80.46875 C 10.34375 -80.90625 10.726562 -81.125 11.28125 -81.125 L 55.5 -81.125 C 57.375 -81.125 59.003906 -81.757812 60.390625 -83.03125 Z M 60.390625 -83.03125 "/></g></g></g><g fill="#ffc1b2" fill-opacity="0.502"><g transform="translate(128.463917, 219.914398)"><g><path d="M 60.390625 -83.03125 C 60.828125 -83.414062 61.328125 -83.5 61.890625 -83.28125 C 62.378906 -83.0625 62.625 -82.675781 62.625 -82.125 L 62.625 -63.546875 C 62.625 -62.992188 62.378906 -62.601562 61.890625 -62.375 C 61.390625 -62.15625 60.945312 -62.238281 60.5625 -62.625 C 59.0625 -64.007812 57.316406 -64.703125 55.328125 -64.703125 L 30.9375 -64.703125 C 30.382812 -64.703125 29.914062 -64.507812 29.53125 -64.125 C 29.09375 -63.738281 28.875 -63.238281 28.875 -62.625 L 28.875 -50.1875 C 28.875 -49.582031 29.09375 -49.082031 29.53125 -48.6875 C 29.914062 -48.300781 30.382812 -48.109375 30.9375 -48.109375 L 38.234375 -48.109375 C 40.234375 -48.109375 41.976562 -48.800781 43.46875 -50.1875 C 43.90625 -50.457031 44.375 -50.484375 44.875 -50.265625 C 45.320312 -49.992188 45.546875 -49.609375 45.546875 -49.109375 L 45.546875 -30.6875 C 45.546875 -30.195312 45.320312 -29.835938 44.875 -29.609375 C 44.375 -29.335938 43.90625 -29.335938 43.46875 -29.609375 C 41.976562 -30.992188 40.234375 -31.6875 38.234375 -31.6875 L 30.9375 -31.6875 C 30.382812 -31.6875 29.914062 -31.492188 29.53125 -31.109375 C 29.09375 -30.722656 28.875 -30.222656 28.875 -29.609375 L 28.875 -17.171875 C 28.875 -16.566406 29.09375 -16.066406 29.53125 -15.671875 C 29.914062 -15.285156 30.382812 -15.09375 30.9375 -15.09375 L 55.328125 -15.09375 C 57.316406 -15.09375 59.0625 -15.785156 60.5625 -17.171875 C 60.945312 -17.554688 61.390625 -17.640625 61.890625 -17.421875 C 62.378906 -17.203125 62.625 -16.816406 62.625 -16.265625 L 62.625 2.234375 C 62.625 2.847656 62.378906 3.265625 61.890625 3.484375 C 61.328125 3.703125 60.828125 3.617188 60.390625 3.234375 C 59.003906 1.960938 57.375 1.328125 55.5 1.328125 L 11.28125 1.328125 C 10.726562 1.328125 10.34375 1.078125 10.125 0.578125 C 9.894531 0.140625 9.921875 -0.300781 10.203125 -0.75 L 10.453125 -1 C 11.117188 -1.71875 11.613281 -2.546875 11.9375 -3.484375 C 12.269531 -4.367188 12.4375 -5.28125 12.4375 -6.21875 L 12.4375 -73.578125 C 12.4375 -75.628906 11.773438 -77.375 10.453125 -78.8125 L 10.203125 -79.046875 C 9.921875 -79.492188 9.894531 -79.96875 10.125 -80.46875 C 10.34375 -80.90625 10.726562 -81.125 11.28125 -81.125 L 55.5 -81.125 C 57.375 -81.125 59.003906 -81.757812 60.390625 -83.03125 Z M 60.390625 -83.03125 "/></g></g></g><g fill="#fffaef" fill-opacity="1"><g transform="translate(130.659459, 220.846345)"><g><path d="M 60.390625 -83.03125 C 60.828125 -83.414062 61.328125 -83.5 61.890625 -83.28125 C 62.378906 -83.0625 62.625 -82.675781 62.625 -82.125 L 62.625 -63.546875 C 62.625 -62.992188 62.378906 -62.601562 61.890625 -62.375 C 61.390625 -62.15625 60.945312 -62.238281 60.5625 -62.625 C 59.0625 -64.007812 57.316406 -64.703125 55.328125 -64.703125 L 30.9375 -64.703125 C 30.382812 -64.703125 29.914062 -64.507812 29.53125 -64.125 C 29.09375 -63.738281 28.875 -63.238281 28.875 -62.625 L 28.875 -50.1875 C 28.875 -49.582031 29.09375 -49.082031 29.53125 -48.6875 C 29.914062 -48.300781 30.382812 -48.109375 30.9375 -48.109375 L 38.234375 -48.109375 C 40.234375 -48.109375 41.976562 -48.800781 43.46875 -50.1875 C 43.90625 -50.457031 44.375 -50.484375 44.875 -50.265625 C 45.320312 -49.992188 45.546875 -49.609375 45.546875 -49.109375 L 45.546875 -30.6875 C 45.546875 -30.195312 45.320312 -29.835938 44.875 -29.609375 C 44.375 -29.335938 43.90625 -29.335938 43.46875 -29.609375 C 41.976562 -30.992188 40.234375 -31.6875 38.234375 -31.6875 L 30.9375 -31.6875 C 30.382812 -31.6875 29.914062 -31.492188 29.53125 -31.109375 C 29.09375 -30.722656 28.875 -30.222656 28.875 -29.609375 L 28.875 -17.171875 C 28.875 -16.566406 29.09375 -16.066406 29.53125 -15.671875 C 29.914062 -15.285156 30.382812 -15.09375 30.9375 -15.09375 L 55.328125 -15.09375 C 57.316406 -15.09375 59.0625 -15.785156 60.5625 -17.171875 C 60.945312 -17.554688 61.390625 -17.640625 61.890625 -17.421875 C 62.378906 -17.203125 62.625 -16.816406 62.625 -16.265625 L 62.625 2.234375 C 62.625 2.847656 62.378906 3.265625 61.890625 3.484375 C 61.328125 3.703125 60.828125 3.617188 60.390625 3.234375 C 59.003906 1.960938 57.375 1.328125 55.5 1.328125 L 11.28125 1.328125 C 10.726562 1.328125 10.34375 1.078125 10.125 0.578125 C 9.894531 0.140625 9.921875 -0.300781 10.203125 -0.75 L 10.453125 -1 C 11.117188 -1.71875 11.613281 -2.546875 11.9375 -3.484375 C 12.269531 -4.367188 12.4375 -5.28125 12.4375 -6.21875 L 12.4375 -73.578125 C 12.4375 -75.628906 11.773438 -77.375 10.453125 -78.8125 L 10.203125 -79.046875 C 9.921875 -79.492188 9.894531 -79.96875 10.125 -80.46875 C 10.34375 -80.90625 10.726562 -81.125 11.28125 -81.125 L 55.5 -81.125 C 57.375 -81.125 59.003906 -81.757812 60.390625 -83.03125 Z M 60.390625 -83.03125 "/></g></g></g><g fill="#ffffff" fill-opacity="1"><g transform="translate(155.222234, 255.998925)"><g><path d="M 15.546875 0 L 4.234375 0 L 4.234375 -0.0625 C 4.515625 -0.257812 4.675781 -0.648438 4.71875 -1.234375 C 4.769531 -1.816406 4.796875 -2.484375 4.796875 -3.234375 L 4.796875 -17.90625 C 4.796875 -18.675781 4.769531 -19.347656 4.71875 -19.921875 C 4.675781 -20.492188 4.515625 -20.878906 4.234375 -21.078125 L 4.234375 -21.140625 L 15.375 -21.140625 L 15.734375 -19 L 15.640625 -19 C 15.359375 -19.34375 15.03125 -19.65625 14.65625 -19.9375 C 14.289062 -20.21875 13.742188 -20.4375 13.015625 -20.59375 C 12.296875 -20.757812 11.257812 -20.84375 9.90625 -20.84375 L 7.734375 -20.84375 C 7.191406 -20.84375 6.816406 -20.738281 6.609375 -20.53125 C 6.410156 -20.332031 6.3125 -19.960938 6.3125 -19.421875 L 6.3125 -12.40625 C 6.3125 -11.863281 6.410156 -11.492188 6.609375 -11.296875 C 6.816406 -11.097656 7.191406 -11 7.734375 -11 L 11.984375 -11 L 11.984375 -10.6875 L 7.734375 -10.6875 C 7.191406 -10.6875 6.816406 -10.585938 6.609375 -10.390625 C 6.410156 -10.191406 6.3125 -9.816406 6.3125 -9.265625 L 6.3125 -1.71875 C 6.3125 -1.175781 6.410156 -0.800781 6.609375 -0.59375 C 6.816406 -0.394531 7.191406 -0.296875 7.734375 -0.296875 L 11.453125 -0.296875 C 12.691406 -0.296875 13.617188 -0.484375 14.234375 -0.859375 C 14.847656 -1.234375 15.410156 -1.8125 15.921875 -2.59375 L 16 -2.5625 Z M 15.546875 0 "/></g></g></g><g fill="#ffffff" fill-opacity="1"><g transform="translate(175.124767, 255.998925)"><g><path d="M 17.3125 0 L 4.234375 0 L 4.234375 -0.0625 C 4.515625 -0.257812 4.675781 -0.648438 4.71875 -1.234375 C 4.769531 -1.816406 4.796875 -2.484375 4.796875 -3.234375 L 4.796875 -17.90625 C 4.796875 -18.675781 4.769531 -19.347656 4.71875 -19.921875 C 4.675781 -20.492188 4.515625 -20.878906 4.234375 -21.078125 L 4.234375 -21.140625 L 6.890625 -21.140625 L 6.890625 -21.078125 C 6.628906 -20.878906 6.46875 -20.492188 6.40625 -19.921875 C 6.34375 -19.347656 6.3125 -18.675781 6.3125 -17.90625 L 6.3125 -1.71875 C 6.3125 -1.175781 6.410156 -0.800781 6.609375 -0.59375 C 6.816406 -0.394531 7.191406 -0.296875 7.734375 -0.296875 L 13.203125 -0.296875 C 14.453125 -0.296875 15.390625 -0.46875 16.015625 -0.8125 C 16.648438 -1.15625 17.203125 -1.703125 17.671875 -2.453125 L 17.765625 -2.421875 Z M 17.3125 0 "/></g></g></g><g fill="#ffffff" fill-opacity="1"><g transform="translate(194.513883, 255.998925)"><g><path d="M 12.6875 0.296875 C 11.15625 0.296875 9.738281 0.03125 8.4375 -0.5 C 7.144531 -1.03125 6.015625 -1.78125 5.046875 -2.75 C 4.078125 -3.71875 3.320312 -4.859375 2.78125 -6.171875 C 2.238281 -7.492188 1.96875 -8.953125 1.96875 -10.546875 C 1.96875 -12.171875 2.238281 -13.644531 2.78125 -14.96875 C 3.320312 -16.300781 4.078125 -17.453125 5.046875 -18.421875 C 6.015625 -19.390625 7.132812 -20.132812 8.40625 -20.65625 C 9.6875 -21.175781 11.070312 -21.4375 12.5625 -21.4375 C 14.09375 -21.4375 15.503906 -21.171875 16.796875 -20.640625 C 18.097656 -20.109375 19.234375 -19.359375 20.203125 -18.390625 C 21.171875 -17.421875 21.925781 -16.273438 22.46875 -14.953125 C 23.007812 -13.640625 23.28125 -12.1875 23.28125 -10.59375 C 23.28125 -8.96875 23.007812 -7.488281 22.46875 -6.15625 C 21.925781 -4.832031 21.171875 -3.6875 20.203125 -2.71875 C 19.234375 -1.75 18.109375 -1.003906 16.828125 -0.484375 C 15.554688 0.0351562 14.175781 0.296875 12.6875 0.296875 Z M 13.015625 0 C 14.722656 0 16.222656 -0.425781 17.515625 -1.28125 C 18.804688 -2.132812 19.8125 -3.320312 20.53125 -4.84375 C 21.257812 -6.363281 21.625 -8.125 21.625 -10.125 C 21.625 -11.6875 21.390625 -13.132812 20.921875 -14.46875 C 20.460938 -15.8125 19.816406 -16.984375 18.984375 -17.984375 C 18.148438 -18.984375 17.15625 -19.757812 16 -20.3125 C 14.851562 -20.863281 13.597656 -21.140625 12.234375 -21.140625 C 10.523438 -21.140625 9.023438 -20.710938 7.734375 -19.859375 C 6.441406 -19.003906 5.429688 -17.816406 4.703125 -16.296875 C 3.984375 -14.773438 3.625 -13.019531 3.625 -11.03125 C 3.625 -9.457031 3.851562 -8 4.3125 -6.65625 C 4.78125 -5.320312 5.429688 -4.15625 6.265625 -3.15625 C 7.097656 -2.15625 8.085938 -1.378906 9.234375 -0.828125 C 10.390625 -0.273438 11.648438 0 13.015625 0 Z M 13.015625 0 "/></g></g></g><g fill="#ffc1b2" fill-opacity="0.302"><g transform="translate(248.725001, 112.236762)"><g><path d="M -60.390625 83.03125 C -60.828125 83.414062 -61.328125 83.5 -61.890625 83.28125 C -62.378906 83.0625 -62.625 82.675781 -62.625 82.125 L -62.625 63.546875 C -62.625 62.992188 -62.378906 62.601562 -61.890625 62.375 C -61.390625 62.15625 -60.945312 62.238281 -60.5625 62.625 C -59.0625 64.007812 -57.316406 64.703125 -55.328125 64.703125 L -30.9375 64.703125 C -30.382812 64.703125 -29.914062 64.507812 -29.53125 64.125 C -29.09375 63.738281 -28.875 63.238281 -28.875 62.625 L -28.875 50.1875 C -28.875 49.582031 -29.09375 49.082031 -29.53125 48.6875 C -29.914062 48.300781 -30.382812 48.109375 -30.9375 48.109375 L -38.234375 48.109375 C -40.234375 48.109375 -41.976562 48.800781 -43.46875 50.1875 C -43.90625 50.457031 -44.375 50.484375 -44.875 50.265625 C -45.320312 49.992188 -45.546875 49.609375 -45.546875 49.109375 L -45.546875 30.6875 C -45.546875 30.195312 -45.320312 29.835938 -44.875 29.609375 C -44.375 29.335938 -43.90625 29.335938 -43.46875 29.609375 C -41.976562 30.992188 -40.234375 31.6875 -38.234375 31.6875 L -30.9375 31.6875 C -30.382812 31.6875 -29.914062 31.492188 -29.53125 31.109375 C -29.09375 30.722656 -28.875 30.222656 -28.875 29.609375 L -28.875 17.171875 C -28.875 16.566406 -29.09375 16.066406 -29.53125 15.671875 C -29.914062 15.285156 -30.382812 15.09375 -30.9375 15.09375 L -55.328125 15.09375 C -57.316406 15.09375 -59.0625 15.785156 -60.5625 17.171875 C -60.945312 17.554688 -61.390625 17.640625 -61.890625 17.421875 C -62.378906 17.203125 -62.625 16.816406 -62.625 16.265625 L -62.625 -2.234375 C -62.625 -2.847656 -62.378906 -3.265625 -61.890625 -3.484375 C -61.328125 -3.703125 -60.828125 -3.617188 -60.390625 -3.234375 C -59.003906 -1.960938 -57.375 -1.328125 -55.5 -1.328125 L -11.28125 -1.328125 C -10.726562 -1.328125 -10.34375 -1.078125 -10.125 -0.578125 C -9.894531 -0.140625 -9.921875 0.300781 -10.203125 0.75 L -10.453125 1 C -11.117188 1.71875 -11.613281 2.546875 -11.9375 3.484375 C -12.269531 4.367188 -12.4375 5.28125 -12.4375 6.21875 L -12.4375 73.578125 C -12.4375 75.628906 -11.773438 77.375 -10.453125 78.8125 L -10.203125 79.046875 C -9.921875 79.492188 -9.894531 79.96875 -10.125 80.46875 C -10.34375 80.90625 -10.726562 81.125 -11.28125 81.125 L -55.5 81.125 C -57.375 81.125 -59.003906 81.757812 -60.390625 83.03125 Z M -60.390625 83.03125 "/></g></g></g><g fill="#ffc1b2" fill-opacity="0.502"><g transform="translate(246.529457, 111.304799)"><g><path d="M -60.390625 83.03125 C -60.828125 83.414062 -61.328125 83.5 -61.890625 83.28125 C -62.378906 83.0625 -62.625 82.675781 -62.625 82.125 L -62.625 63.546875 C -62.625 62.992188 -62.378906 62.601562 -61.890625 62.375 C -61.390625 62.15625 -60.945312 62.238281 -60.5625 62.625 C -59.0625 64.007812 -57.316406 64.703125 -55.328125 64.703125 L -30.9375 64.703125 C -30.382812 64.703125 -29.914062 64.507812 -29.53125 64.125 C -29.09375 63.738281 -28.875 63.238281 -28.875 62.625 L -28.875 50.1875 C -28.875 49.582031 -29.09375 49.082031 -29.53125 48.6875 C -29.914062 48.300781 -30.382812 48.109375 -30.9375 48.109375 L -38.234375 48.109375 C -40.234375 48.109375 -41.976562 48.800781 -43.46875 50.1875 C -43.90625 50.457031 -44.375 50.484375 -44.875 50.265625 C -45.320312 49.992188 -45.546875 49.609375 -45.546875 49.109375 L -45.546875 30.6875 C -45.546875 30.195312 -45.320312 29.835938 -44.875 29.609375 C -44.375 29.335938 -43.90625 29.335938 -43.46875 29.609375 C -41.976562 30.992188 -40.234375 31.6875 -38.234375 31.6875 L -30.9375 31.6875 C -30.382812 31.6875 -29.914062 31.492188 -29.53125 31.109375 C -29.09375 30.722656 -28.875 30.222656 -28.875 29.609375 L -28.875 17.171875 C -28.875 16.566406 -29.09375 16.066406 -29.53125 15.671875 C -29.914062 15.285156 -30.382812 15.09375 -30.9375 15.09375 L -55.328125 15.09375 C -57.316406 15.09375 -59.0625 15.785156 -60.5625 17.171875 C -60.945312 17.554688 -61.390625 17.640625 -61.890625 17.421875 C -62.378906 17.203125 -62.625 16.816406 -62.625 16.265625 L -62.625 -2.234375 C -62.625 -2.847656 -62.378906 -3.265625 -61.890625 -3.484375 C -61.328125 -3.703125 -60.828125 -3.617188 -60.390625 -3.234375 C -59.003906 -1.960938 -57.375 -1.328125 -55.5 -1.328125 L -11.28125 -1.328125 C -10.726562 -1.328125 -10.34375 -1.078125 -10.125 -0.578125 C -9.894531 -0.140625 -9.921875 0.300781 -10.203125 0.75 L -10.453125 1 C -11.117188 1.71875 -11.613281 2.546875 -11.9375 3.484375 C -12.269531 4.367188 -12.4375 5.28125 -12.4375 6.21875 L -12.4375 73.578125 C -12.4375 75.628906 -11.773438 77.375 -10.453125 78.8125 L -10.203125 79.046875 C -9.921875 79.492188 -9.894531 79.96875 -10.125 80.46875 C -10.34375 80.90625 -10.726562 81.125 -11.28125 81.125 L -55.5 81.125 C -57.375 81.125 -59.003906 81.757812 -60.390625 83.03125 Z M -60.390625 83.03125 "/></g></g></g><g fill="#fffaef" fill-opacity="1"><g transform="translate(244.333937, 110.37285)"><g><path d="M -60.390625 83.03125 C -60.828125 83.414062 -61.328125 83.5 -61.890625 83.28125 C -62.378906 83.0625 -62.625 82.675781 -62.625 82.125 L -62.625 63.546875 C -62.625 62.992188 -62.378906 62.601562 -61.890625 62.375 C -61.390625 62.15625 -60.945312 62.238281 -60.5625 62.625 C -59.0625 64.007812 -57.316406 64.703125 -55.328125 64.703125 L -30.9375 64.703125 C -30.382812 64.703125 -29.914062 64.507812 -29.53125 64.125 C -29.09375 63.738281 -28.875 63.238281 -28.875 62.625 L -28.875 50.1875 C -28.875 49.582031 -29.09375 49.082031 -29.53125 48.6875 C -29.914062 48.300781 -30.382812 48.109375 -30.9375 48.109375 L -38.234375 48.109375 C -40.234375 48.109375 -41.976562 48.800781 -43.46875 50.1875 C -43.90625 50.457031 -44.375 50.484375 -44.875 50.265625 C -45.320312 49.992188 -45.546875 49.609375 -45.546875 49.109375 L -45.546875 30.6875 C -45.546875 30.195312 -45.320312 29.835938 -44.875 29.609375 C -44.375 29.335938 -43.90625 29.335938 -43.46875 29.609375 C -41.976562 30.992188 -40.234375 31.6875 -38.234375 31.6875 L -30.9375 31.6875 C -30.382812 31.6875 -29.914062 31.492188 -29.53125 31.109375 C -29.09375 30.722656 -28.875 30.222656 -28.875 29.609375 L -28.875 17.171875 C -28.875 16.566406 -29.09375 16.066406 -29.53125 15.671875 C -29.914062 15.285156 -30.382812 15.09375 -30.9375 15.09375 L -55.328125 15.09375 C -57.316406 15.09375 -59.0625 15.785156 -60.5625 17.171875 C -60.945312 17.554688 -61.390625 17.640625 -61.890625 17.421875 C -62.378906 17.203125 -62.625 16.816406 -62.625 16.265625 L -62.625 -2.234375 C -62.625 -2.847656 -62.378906 -3.265625 -61.890625 -3.484375 C -61.328125 -3.703125 -60.828125 -3.617188 -60.390625 -3.234375 C -59.003906 -1.960938 -57.375 -1.328125 -55.5 -1.328125 L -11.28125 -1.328125 C -10.726562 -1.328125 -10.34375 -1.078125 -10.125 -0.578125 C -9.894531 -0.140625 -9.921875 0.300781 -10.203125 0.75 L -10.453125 1 C -11.117188 1.71875 -11.613281 2.546875 -11.9375 3.484375 C -12.269531 4.367188 -12.4375 5.28125 -12.4375 6.21875 L -12.4375 73.578125 C -12.4375 75.628906 -11.773438 77.375 -10.453125 78.8125 L -10.203125 79.046875 C -9.921875 79.492188 -9.894531 79.96875 -10.125 80.46875 C -10.34375 80.90625 -10.726562 81.125 -11.28125 81.125 L -55.5 81.125 C -57.375 81.125 -59.003906 81.757812 -60.390625 83.03125 Z M -60.390625 83.03125 "/></g></g></g></svg>